<?xml version="1.0" encoding="utf-8"?>
<!-- Generator: Adobe Illustrator 25.2.3, SVG Export Plug-In . SVG Version: 6.00 Build 0)  -->
<svg version="1.1" id="Layer_1" xmlns="http://www.w3.org/2000/svg" xmlns:xlink="http://www.w3.org/1999/xlink" x="0px" y="0px"
	 viewBox="0 0 1556.8 361.6" style="enable-background:new 0 0 1556.8 361.6;" xml:space="preserve">
<style type="text/css">
	.st0{fill:url(#SVGID_1_);}
	.st1{fill:url(#SVGID_2_);}
	.st2{fill:url(#SVGID_3_);}
	.st3{fill:none;}
	.st4{fill:url(#SVGID_4_);}
	.st5{fill:url(#SVGID_5_);}
	.st6{fill:url(#SVGID_6_);}
	.st7{fill:url(#SVGID_7_);}
	.st8{fill:url(#SVGID_8_);}
	.st9{fill:url(#SVGID_9_);}
	.st10{fill:url(#SVGID_10_);}
	.st11{fill:url(#SVGID_11_);}
	.st12{fill:url(#SVGID_12_);}
	.st13{fill:url(#SVGID_13_);}
	.st14{fill:url(#SVGID_14_);}
	.st15{fill:url(#SVGID_15_);}
	.st16{fill:url(#SVGID_16_);}
</style>
<g id="WxlIdQ_1_">
	<g>
		<linearGradient id="SVGID_1_" gradientUnits="userSpaceOnUse" x1="119.8044" y1="334.883" x2="119.8044" y2="23.883">
			<stop  offset="0" style="stop-color:#002B49"/>
			<stop  offset="0.3929" style="stop-color:#002E4D"/>
			<stop  offset="0.7555" style="stop-color:#003658"/>
			<stop  offset="1" style="stop-color:#003F64"/>
		</linearGradient>
		<path class="st0" d="M16.4,23.9c21.8,0,43.7,0,65.4,0c3.3,5,10.4,24.1,11.7,28.2c1.8,5.6,56.6,143,58.4,147.7
			c0.8-4.2,1.1-106.2,0.4-124.7c-7.1,0-14.2,0-21.6,0c0-17.1,0-34,0-51c30.7,0,61.5,0,92.5,0c0,16.8,0,33.7,0,50.8
			c-7.1,0-14.3,0-21.8,0c0,1.6,0,3.1,0,4.5c0,83.3,0,166.6,0,250c0,1.9,0.9,4.1-1.4,5.5c-13.8,0-27.8,0-42,0
			c-3.4-2.1-63.6-152.8-65.6-159c-1.1-3.4-2.9-6.6-4.8-10.8c0,39.8,0,78.6,0,117.6c-0.1-0.1,0,0.1,0.2,0.1c0.1,0.1,0.3,0.2,0.4,0.2
			c6.6,0,13.3,0,20.4,0c0.3,2.1,1.3,46.4-0.5,52c-30.4,0-61,0-91.6,0c0-17.3,0-34.7,0-52c7,0,13.9,0,20.8,0
			c0.8-19.1,0.4-203.5-0.3-208c-6.8,0-13.7,0-20.5,0C16.4,57.9,16.4,40.9,16.4,23.9z"/>
		<linearGradient id="SVGID_2_" gradientUnits="userSpaceOnUse" x1="1420.317" y1="334.883" x2="1420.317" y2="23.883">
			<stop  offset="0" style="stop-color:#002B49"/>
			<stop  offset="0.3929" style="stop-color:#002E4D"/>
			<stop  offset="0.7555" style="stop-color:#003658"/>
			<stop  offset="1" style="stop-color:#003F64"/>
		</linearGradient>
		<path class="st1" d="M1316.9,23.9c21.8,0,43.7,0,65.4,0c3.3,5,68.3,171.2,70.1,175.9c0.8-4.2,1.1-106.2,0.4-124.7
			c-7.1,0-14.2,0-21.6,0c0-17.1,0-34,0-51c30.7,0,61.5,0,92.5,0c0,16.8,0,33.7,0,50.8c-7.1,0-14.3,0-21.8,0c0,1.6,0.8,258.5-1.5,260
			c-13.8,0-27.8,0-42,0c-3.4-2.1-68.5-165.6-70.4-169.8c0,39.8,0,78.6,0,117.6c-0.1-0.1,0,0.1,0.2,0.1c0.1,0.1,0.3,0.2,0.4,0.2
			c6.6,0,13.3,0,20.4,0c0.3,2.1,1.3,46.4-0.5,52c-30.4,0-61,0-91.6,0c0-17.3,0-34.7,0-52c7,0,13.9,0,20.8,0
			c0.8-19.1,0.4-203.5-0.3-208c-6.8,0-13.7,0-20.5,0C1316.9,57.9,1316.9,40.9,1316.9,23.9z"/>
		<linearGradient id="SVGID_3_" gradientUnits="userSpaceOnUse" x1="1229.8356" y1="334.883" x2="1229.8356" y2="24.1017">
			<stop  offset="0" style="stop-color:#002B49"/>
			<stop  offset="0.3929" style="stop-color:#002E4D"/>
			<stop  offset="0.7555" style="stop-color:#003658"/>
			<stop  offset="1" style="stop-color:#003F64"/>
		</linearGradient>
		<path class="st2" d="M1275.9,282.9c-7.1,0-13.7,0-20.4,0c-0.1,0-0.3-0.1-0.4-0.2c-0.1-0.1-0.3-0.2-0.2-0.1
			c0-37.7-0.2-198,0.1-206.5c6.9,0,13.9,0,20.8,0c0-17.3,0-34.7,0-52c-30.6,0-61.2,0-91.6,0c-1.9,5.6-0.8,49.9-0.5,52
			c7.1,0,13.7,0,20.4,0c0.1,0,0.3,0.1,0.4,0.2c0.1,0.1,0.3,0.2,0.2,0.1c0,37.7,0.2,198-0.1,206.5c-6.9,0-13.9,0-20.8,0
			c0,17.3,0,34.7,0,52c30.6,0,61.2,0,91.6,0C1277.2,329.3,1276.2,285,1275.9,282.9z"/>
	</g>
</g>
<g>
	<path class="st3" d="M293.6,75c0,69.5,0,138.6,0,207.7c14.9,0.7,54.7,0.4,58.7-0.3c0-25.7,0-51.3,0-77h-16.6v-49.1h16.6
		c0-27.1,0-54.2,0-81.3C332.6,75,313.2,75,293.6,75z"/>
	<path class="st3" d="M1058.5,205.4h-17.4c0,25.8,0,51.6,0,77.4c19.6,0,39.1,0,58.7,0c0-69.3,0-138.5,0-207.7
		c-16.8-0.7-54.7-0.4-58.7,0.4c0,27,0,53.9,0,80.8h17.4V205.4z"/>
	<linearGradient id="SVGID_4_" gradientUnits="userSpaceOnUse" x1="959.2365" y1="243.4171" x2="1182.728" y2="114.3843">
		<stop  offset="0" style="stop-color:#283C50"/>
		<stop  offset="1" style="stop-color:#425868"/>
	</linearGradient>
	<path class="st4" d="M1118.6,24c-32.2,0-64.3,0-96.1,0c-0.7,1-25.3,27.8-30.5,33.4c0,33,0,60.9,0,93.9h49.2c0-26.9,0-48.9,0-75.8
		c3.9-0.8,41.9-1,58.7-0.4c0,69.2,0,138.4,0,207.7c-19.6,0-39,0-58.7,0c0-25.8,0-46.6,0-72.4H992c0,31.6,0,58.2,0,89.7
		c1.2,1.6,2,3.2,3.2,4.5c6.8,7.2,13.6,14.3,20.4,21.5c2.3,2.5,4.6,5,7.2,7.7c7,0.1,14.5,1.3,22,1.2c22.5-0.2,45-0.1,67.5-0.1
		c1.8,0,3.6,0,5.3,0c5.8-6.2,11.4-12.2,17.1-18.2c1.9-2.1,4.4-3.7,5.9-6.1c2.2-3.5,5.3-6.1,8.4-8.7c0-82,0-164,0-246
		C1147.4,54.5,1120.4,25.9,1118.6,24z"/>
	<linearGradient id="SVGID_5_" gradientUnits="userSpaceOnUse" x1="211.455" y1="242.8704" x2="434.2598" y2="114.234">
		<stop  offset="0" style="stop-color:#283C50"/>
		<stop  offset="1" style="stop-color:#425868"/>
	</linearGradient>
	<path class="st5" d="M352.3,282.4c-3.9,0.7-43.8,1-58.7,0.3c0-69.1,0-138.2,0-207.7c19.6,0,39.1,0,58.7,0c0,27.1,0,49.2,0,76.3
		h49.2c0-33,0-60.9,0-93.9c-2-1.2-26.1-27.3-30.3-33.4c-32.5,0-64.4,0-96.5,0c-1.3,1.7-30.4,34.1-30.3,37.5
		c0.2,18.8,0.1,37.7,0.1,56.5c0,59.5,0,119-0.1,178.5c0,3.3,0.9,5.9,3.3,8.2c3.5,3.4,21.6,22.9,27.7,29.2c2.5,0,95.5,0.2,97-1.5
		c1.3-1.4,29.1-32.5,29.1-36c0-30.3,0-55.7,0-86h-49.2C352.3,236.1,352.3,256.7,352.3,282.4z"/>
	<linearGradient id="SVGID_6_" gradientUnits="userSpaceOnUse" x1="435.3624" y1="305.1979" x2="655.1121" y2="178.3254">
		<stop  offset="0" style="stop-color:#283C50"/>
		<stop  offset="1" style="stop-color:#425868"/>
	</linearGradient>
	<path class="st6" d="M587.4,239c-16.5,0-32.6,0-49,0c0,14.7,0,29.2,0,43.8c-19.1,0-37.9,0-56.8,0c0-25.8,0-46.6,0-72.4h-49.1
		c0,31.6,0,58.3,0,89.8c4.6,5,29,30.4,32.2,34.7c25.1,0,82.5,0.3,86.3-0.1c3-0.4,25.8-22.5,34-30.9c1.8-1.8,2.5-3.9,2.5-6.5
		C587.4,279.5,587.4,240.6,587.4,239z"/>
	<linearGradient id="SVGID_7_" gradientUnits="userSpaceOnUse" x1="359.8617" y1="167.4471" x2="576.589" y2="42.3195">
		<stop  offset="0" style="stop-color:#283C50"/>
		<stop  offset="1" style="stop-color:#425868"/>
	</linearGradient>
	<path class="st7" d="M481.6,75c19,0,37.8,0,56.9,0c0,15,0,29.9,0,44.7c16.5,0,32.6,0,48.9,0c0-1.6-0.1-40.2,0.1-58
		c0-3.6-29.7-36.4-30.9-37.8c-30.6,0-61.6,0-93.1,0c-3.3,3.8-24.3,26.4-31.1,33.4c0,33,0,61,0,93.9h49.1
		C481.6,124.2,481.6,102.1,481.6,75z"/>
	<linearGradient id="SVGID_8_" gradientUnits="userSpaceOnUse" x1="545.8319" y1="167.3929" x2="763.9576" y2="41.4579">
		<stop  offset="0" style="stop-color:#283C50"/>
		<stop  offset="1" style="stop-color:#425868"/>
	</linearGradient>
	<path class="st8" d="M667.6,75.1c19,0,37.9,0,57,0c0,15,0,29.8,0,44.6c12.9,0.6,44.8,0.4,48.9-0.3c0-20.7,0-41.3,0-61.5
		c-2.5-3-23.3-25.4-31.3-33.8c-30.9,0-61.7,0-92.3,0c-2.6,2.6-25.6,27.3-31.4,33.4c0,33,0,60.9,0,93.8h49.1
		C667.6,124.2,667.6,102.2,667.6,75.1z"/>
	<linearGradient id="SVGID_9_" gradientUnits="userSpaceOnUse" x1="621.5734" y1="305.541" x2="842.713" y2="177.866">
		<stop  offset="0" style="stop-color:#283C50"/>
		<stop  offset="1" style="stop-color:#425868"/>
	</linearGradient>
	<path class="st9" d="M773.4,251.6c0-4.1,0-8.3,0-12.5c-16.4,0-32.7,0-49.1,0c0,14.6,0,29.1,0,43.6c-19.1,0-38,0-56.8,0
		c0-25.8,0-46.5,0-72.3h-49.1c0,31.6,0,58.1,0,89.7c2.3,2.8,29.9,32.9,30.5,33.8c2,0,94.6-1.6,95-2.1c6.8-7.2,29.6-31.9,29.5-34.7
		C773.3,281.9,773.4,266.8,773.4,251.6z"/>
	<linearGradient id="SVGID_10_" gradientUnits="userSpaceOnUse" x1="732.7684" y1="167.3929" x2="950.8942" y2="41.4579">
		<stop  offset="0" style="stop-color:#283C50"/>
		<stop  offset="1" style="stop-color:#425868"/>
	</linearGradient>
	<path class="st10" d="M854.5,75.1c19,0,37.9,0,57,0c0,15,0,29.8,0,44.6c12.9,0.6,44.8,0.4,48.9-0.3c0-20.7,0-41.3,0-61.5
		c-2.5-3-23.3-25.4-31.3-33.8c-30.9,0-61.7,0-92.3,0c-2.6,2.6-25.6,27.3-31.4,33.4c0,33,0,60.9,0,93.8h49.1
		C854.5,124.2,854.5,102.2,854.5,75.1z"/>
	<linearGradient id="SVGID_11_" gradientUnits="userSpaceOnUse" x1="808.5099" y1="305.541" x2="1029.6495" y2="177.866">
		<stop  offset="0" style="stop-color:#283C50"/>
		<stop  offset="1" style="stop-color:#425868"/>
	</linearGradient>
	<path class="st11" d="M960.4,251.6c0-4.1,0-8.3,0-12.5c-16.4,0-32.7,0-49.1,0c0,14.6,0,29.1,0,43.6c-19.1,0-38,0-56.8,0
		c0-25.8,0-46.5,0-72.3h-49.1c0,31.6,0,58.1,0,89.7c2.3,2.8,29.9,32.9,30.5,33.8c2,0,94.6-1.6,95-2.1c6.8-7.2,29.6-31.9,29.5-34.7
		C960.2,281.9,960.4,266.8,960.4,251.6z"/>
	<linearGradient id="SVGID_12_" gradientUnits="userSpaceOnUse" x1="173.9399" y1="320.5402" x2="511.2112" y2="125.8165">
		<stop  offset="0" style="stop-color:#283C50"/>
		<stop  offset="1" style="stop-color:#425868"/>
	</linearGradient>
	<path class="st12" d="M335.7,161.6v38.5c0,2.9,2.4,5.3,5.3,5.3h149.9c2.9,0,5.3-2.4,5.3-5.3v-38.5c0-2.9-2.4-5.3-5.3-5.3H341
		C338,156.3,335.7,158.6,335.7,161.6z"/>
	<linearGradient id="SVGID_13_" gradientUnits="userSpaceOnUse" x1="357.7754" y1="321.3198" x2="695.0538" y2="126.592">
		<stop  offset="0" style="stop-color:#283C50"/>
		<stop  offset="1" style="stop-color:#425868"/>
	</linearGradient>
	<path class="st13" d="M520.8,161.6v38.5c0,2.9,2.4,5.3,5.3,5.3h149.9c2.9,0,5.3-2.4,5.3-5.3v-38.5c0-2.9-2.4-5.3-5.3-5.3H526.2
		C523.2,156.3,520.8,158.6,520.8,161.6z"/>
	<linearGradient id="SVGID_14_" gradientUnits="userSpaceOnUse" x1="805.3543" y1="156.2518" x2="805.3543" y2="156.2518">
		<stop  offset="0" style="stop-color:#283C50"/>
		<stop  offset="1" style="stop-color:#425868"/>
	</linearGradient>
	<path class="st14" d="M805.4,156.3"/>
	<linearGradient id="SVGID_15_" gradientUnits="userSpaceOnUse" x1="543.5922" y1="321.7341" x2="880.8706" y2="127.0063">
		<stop  offset="0" style="stop-color:#283C50"/>
		<stop  offset="1" style="stop-color:#425868"/>
	</linearGradient>
	<path class="st15" d="M707.4,161.6v38.5c0,2.9,2.4,5.3,5.3,5.3h149.9c2.9,0,5.3-2.4,5.3-5.3v-38.5c0-2.9-2.4-5.3-5.3-5.3H712.7
		C709.8,156.3,707.4,158.6,707.4,161.6z"/>
	<linearGradient id="SVGID_16_" gradientUnits="userSpaceOnUse" x1="741.2474" y1="317.6364" x2="1078.4188" y2="122.9704">
		<stop  offset="0" style="stop-color:#283C50"/>
		<stop  offset="1" style="stop-color:#425868"/>
	</linearGradient>
	<path class="st16" d="M897.9,161.6v38.5c0,2.9,2.4,5.3,5.3,5.3h149.9c2.9,0,5.3-2.4,5.3-5.3v-38.5c0-2.9-2.4-5.3-5.3-5.3H903.2
		C900.3,156.3,897.9,158.6,897.9,161.6z"/>
</g>
</svg>
